# xmcd
#
# Track frame offsets: 
#        150
#        17040
#        41327
#        66645
#        82117
#        102830
#        126102
#        151630
#        171537
#        192802
#        213907
#        234442
#        254130
#        278717
#        295927
#
# Disc length: 4241 seconds
#
# Revision: 1
# Processed by: cddbd v1.5.2PL0 Copyright (c) Steve Scherf et al.
# Submitted via: ExactAudioCopy v0.95b4
#
DISCID=d8108f0f
DTITLE=European Jazz Trio - La Dolce Lita
DYEAR=2005
DGENRE=Jazz
TTITLE0=The Shadow Of Your Smile <J. Mandel>
TTITLE1=Sonata, K.9 <D. Scarlatti>
TTITLE2=The Jewels OF The Madonna - Intermezzo No.1 <E. W. Ferrari>
TTITLE3=13 Jours en France <F. Lai>
TTITLE4=Chateau en Suede <R. Senechal>
TTITLE5=Gymnopedie No.1 <E. Satie>
TTITLE6=Dancing Queen <B. Andersson, S. Andersson, B. Ulvaeus>
TTITLE7=Largo <J. S. Bach>
TTITLE8=Fragile <G. Sumner>
TTITLE9=Fantasie Impromptu, op.66 <F. Chopin>
TTITLE10=Satono Aki <M. Kainuma>
TTITLE11=Kiss Of Fire <A. Villoldo>
TTITLE12=Il Postino <L. E. Bacalov>
TTITLE13=Maria (West Side Story) <L. Bernstein>
TTITLE14=Danny Boy (The Londonberry Air) <Trad.>
EXTD=YEAR: 2005
EXTT0=
EXTT1=
EXTT2=
EXTT3=
EXTT4=
EXTT5=
EXTT6=
EXTT7=
EXTT8=
EXTT9=
EXTT10=
EXTT11=
EXTT12=
EXTT13=
EXTT14=
PLAYORDER=
